<svg width="80" height="22" viewBox="0 0 80 22" fill="none" xmlns="http://www.w3.org/2000/svg">
<path d="M0.762719 21V16.268H6.13872V6.132H0.762719V1.4H17.0307V6.132H11.6827V16.268H17.0307V21H0.762719ZM27.1057 21V1.4H31.9497L40.8817 12.46H37.4657L46.3977 1.4H51.2417V21H45.8937V15.484C45.8937 13.9347 45.931 12.4787 46.0057 11.116C46.0804 9.75333 46.2297 8.36267 46.4537 6.944L46.9857 8.708L40.0977 16.632H38.2497L31.2777 8.596L31.8937 6.944C32.1177 8.36267 32.267 9.75333 32.3417 11.116C32.4164 12.4787 32.4537 13.9347 32.4537 15.484V21H27.1057ZM69.6738 21.28C68.0124 21.28 66.4911 21.14 65.1098 20.86C63.7284 20.5613 62.4778 20.1787 61.3578 19.712C60.2378 19.2453 59.2204 18.7507 58.3058 18.228L60.6018 13.804C62.2818 14.8307 63.9524 15.568 65.6138 16.016C67.2938 16.464 68.8151 16.688 70.1778 16.688C70.6444 16.688 71.1578 16.66 71.7178 16.604C72.2964 16.5293 72.7818 16.38 73.1738 16.156C73.5844 15.932 73.7898 15.5773 73.7898 15.092C73.7898 14.8307 73.7058 14.6253 73.5378 14.476C73.3884 14.308 73.1551 14.168 72.8378 14.056C72.5204 13.944 72.1284 13.8507 71.6618 13.776C71.2138 13.7013 70.7004 13.6453 70.1218 13.608C69.5618 13.552 68.9364 13.496 68.2458 13.44C66.9204 13.328 65.7164 13.1227 64.6338 12.824C63.5698 12.5253 62.6458 12.1333 61.8618 11.648C61.0964 11.144 60.4991 10.5373 60.0698 9.828C59.6591 9.11867 59.4538 8.30667 59.4538 7.392C59.4538 6.34667 59.7151 5.42267 60.2378 4.62C60.7604 3.79867 61.4884 3.11733 62.4218 2.576C63.3551 2.016 64.4284 1.596 65.6418 1.316C66.8551 1.036 68.1524 0.895998 69.5338 0.895998C70.9898 0.895998 72.2871 1.01733 73.4258 1.26C74.5831 1.50267 75.6004 1.82 76.4778 2.212C77.3738 2.604 78.1111 2.996 78.6898 3.388L76.2538 7.196C75.6564 6.84133 74.9564 6.54267 74.1538 6.3C73.3698 6.05733 72.5578 5.87067 71.7178 5.74C70.8964 5.59067 70.0938 5.516 69.3098 5.516C68.5631 5.516 67.8818 5.56267 67.2658 5.656C66.6684 5.74933 66.1924 5.908 65.8378 6.132C65.5018 6.33733 65.3338 6.62667 65.3338 7C65.3338 7.336 65.5018 7.60667 65.8378 7.812C66.1924 7.99867 66.6311 8.148 67.1538 8.26C67.6951 8.35333 68.2551 8.428 68.8338 8.484C69.4124 8.52133 69.9351 8.568 70.4018 8.624C71.5218 8.71733 72.6231 8.848 73.7058 9.016C74.8071 9.184 75.8058 9.464 76.7018 9.856C77.5978 10.248 78.3071 10.8173 78.8298 11.564C79.3711 12.3107 79.6418 13.3187 79.6418 14.588C79.6418 16.0067 79.2031 17.22 78.3258 18.228C77.4484 19.2173 76.2538 19.9733 74.7418 20.496C73.2484 21.0187 71.5591 21.28 69.6738 21.28Z" fill="#157FCC"/>
</svg>
